<svg width="281" height="44" viewBox="0 0 803 119" fill="none" xmlns="http://www.w3.org/2000/svg">
  <path d="M146.487 15.2489C146.487 15.2489 146.487 12.1667 145.838 11.1933C145.189 10.22 142.918 10.3822 142.918 10.3822H116.151C116.151 10.3822 114.853 10.22 114.042 10.7067C113.231 11.1933 113.393 12.6533 113.393 12.6533C113.393 11.3555 116.151 63.5911 73.8111 63.5911C43.6378 63.5911 34.0667 43.6378 34.0667 13.4644C34.0667 13.4644 34.0667 11.68 33.2556 11.0311C32.4445 10.3822 30.3356 10.3822 30.3356 10.3822H3.56891C3.56891 10.3822 1.29779 10.22 0.648903 11.1933C1.38581e-05 12.1667 0.162256 15.2489 0.162256 15.2489C0.162256 42.6644 5.67779 83.0578 53.3711 91.8178V113.88C53.3711 115.989 54.9934 117.611 57.1022 117.611H89.2222C91.3311 117.611 92.9534 115.989 92.9534 113.88V91.8178C153.3 80.3 146.487 15.8978 146.487 15.2489Z" fill="currentColor"/>
  <path d="M72.8378 46.5578C85.4911 46.5578 95.8734 36.1755 95.8734 23.5222C95.8734 10.8689 85.4911 0.486633 72.8378 0.486633C60.1845 0.486633 49.8022 10.8689 49.8022 23.5222C49.8022 36.1755 60.1845 46.5578 72.8378 46.5578ZM791.482 45.0977C783.047 45.0977 778.829 50.1267 778.829 57.5889V65.3755C778.829 72.6755 783.209 76.8933 790.671 76.8933C794.24 76.8933 797.322 75.92 799.593 73.3244V76.5689H803V61.32H793.753V63.9155H799.269V70.08C797.322 72.6756 794.889 73.6489 791.32 73.6489C785.804 73.6489 782.722 70.7289 782.722 65.3755V57.5889C782.722 51.7489 785.642 48.3422 791.807 48.3422C795.538 48.3422 798.296 49.9644 799.918 52.8844L802.838 51.7489C801.378 47.8555 796.998 45.0977 791.482 45.0977M748.007 45.4222V76.5689H751.576V52.3977H751.738L768.284 76.5689H771.204V45.4222H767.636V69.2689H767.473L751.251 45.4222H748.007V45.4222ZM734.542 76.5689H738.598V45.4222H734.542V76.5689V76.5689ZM701.773 45.4222V76.5689H705.342V52.3977H705.504L722.051 76.5689H725.133V45.4222H721.564V69.2689H721.402L705.18 45.4222H701.773ZM674.033 45.4222V76.5689H695.122V73.1622H678.089V62.1311H691.067V59.0489H678.089V48.8289H694.473V45.4222H674.033ZM648.727 48.8289H655.702C660.569 48.8289 662.029 50.9378 662.029 54.3444C662.029 57.7511 660.569 60.1844 655.54 60.1844H648.564V48.8289H648.727ZM663.651 76.5689H668.356L658.784 62.78C663.489 61.9689 666.084 58.7244 666.084 54.1822C666.084 48.8289 662.678 45.5844 655.702 45.5844H644.671V76.7311H648.727V63.2667H654.891L663.651 76.5689V76.5689ZM633.153 65.3755C633.153 70.8911 630.396 73.8111 624.88 73.8111C619.364 73.8111 616.607 70.8911 616.607 65.3755V56.6155C616.607 51.2622 619.364 48.3422 624.88 48.3422C630.396 48.3422 633.153 51.2622 633.153 56.6155V65.3755ZM624.88 45.0977C617.093 45.0977 612.551 49.64 612.551 56.6155V65.3755C612.551 72.5133 616.931 76.8933 624.88 76.8933C632.829 76.8933 637.209 72.3511 637.209 65.2133V56.4533C637.209 49.64 632.829 45.0977 624.88 45.0977M586.758 45.4222V76.5689H590.813V62.6178H604.927V59.3733H590.813V48.8289H607.36V45.4222H586.758V45.4222ZM555.611 45.0977C547.176 45.0977 542.958 50.1267 542.958 57.5889V65.3755C542.958 72.6755 547.338 76.8933 554.8 76.8933C558.369 76.8933 561.451 75.92 563.722 73.3244V76.5689H567.129V61.32H558.044V63.9155H563.56V70.08C561.613 72.6756 559.18 73.6489 555.611 73.6489C550.096 73.6489 547.013 70.7289 547.013 65.3755V57.5889C547.013 51.7489 549.933 48.3422 556.098 48.3422C559.829 48.3422 562.587 49.9644 564.209 52.8844L567.129 51.7489C565.507 47.8555 561.127 45.0977 555.611 45.0977M533.062 65.3755C533.062 70.8911 530.304 73.8111 524.789 73.8111C519.273 73.8111 516.516 70.8911 516.516 65.3755V56.6155C516.516 51.2622 519.273 48.3422 524.789 48.3422C530.304 48.3422 533.062 51.2622 533.062 56.6155V65.3755ZM524.951 45.0977C517.164 45.0977 512.622 49.64 512.622 56.6155V65.3755C512.622 72.5133 517.002 76.8933 524.951 76.8933C532.9 76.8933 537.28 72.3511 537.28 65.2133V56.4533C537.118 49.64 532.738 45.0977 524.951 45.0977M490.56 45.4222V76.5689H509.378V73.1622H494.453V45.5844H490.56V45.4222ZM479.367 65.3755C479.367 70.8911 476.609 73.8111 471.093 73.8111C465.578 73.8111 462.82 70.8911 462.82 65.3755V56.6155C462.82 51.2622 465.578 48.3422 471.093 48.3422C476.609 48.3422 479.367 51.2622 479.367 56.6155V65.3755ZM471.256 45.0977C463.469 45.0977 458.927 49.64 458.927 56.6155V65.3755C458.927 72.5133 463.307 76.8933 471.256 76.8933C479.204 76.8933 483.584 72.3511 483.584 65.2133V56.4533C483.422 49.64 479.042 45.0977 471.256 45.0977M456.818 76.5689L443.516 59.3733L455.682 45.4222H450.653L436.216 62.4555V45.4222H432.16V76.5689H436.216V66.6733L440.92 61.9689L451.951 76.5689H456.818V76.5689ZM427.618 45.4222H423.076L413.991 62.6178H413.829L404.907 45.4222H400.202L411.882 65.8622V76.5689H415.938V66.0244L427.618 45.4222V45.4222ZM387.062 45.0977C380.573 45.0977 376.842 48.6666 376.842 53.2089C376.842 63.9155 394.362 60.6711 394.362 68.4578C394.362 72.0267 391.767 73.8111 387.387 73.8111C383.98 73.8111 380.736 72.0266 379.438 68.7822L376.356 70.08C377.978 74.1356 382.358 77.0555 387.387 77.0555C393.876 77.0555 398.256 73.8111 398.256 68.2956C398.256 57.7511 380.898 60.5089 380.898 53.2089C380.898 50.6133 382.682 48.3422 387.549 48.3422C391.118 48.3422 394.038 49.9644 395.173 52.56L397.931 51.2622C396.147 47.3689 392.253 45.0977 387.062 45.0977M355.104 48.8289H363.053C367.433 48.8289 369.218 50.9378 369.218 54.9933C369.218 59.0489 367.433 61.1578 363.053 61.1578H355.104V48.8289ZM363.216 45.4222H351.049V76.5689H355.104V64.24H363.378C369.704 64.24 373.273 60.6711 373.273 54.8311C373.273 48.9911 369.542 45.4222 363.216 45.4222M333.691 76.5689L320.389 59.3733L332.556 45.4222H327.527L313.089 62.4555V45.4222H309.033V76.5689H313.089V66.6733L317.793 61.9689L328.824 76.5689H333.691V76.5689ZM292.487 45.0977C285.998 45.0977 282.267 48.6666 282.267 53.2089C282.267 63.9155 299.787 60.6711 299.787 68.4578C299.787 72.0267 297.191 73.8111 292.811 73.8111C289.404 73.8111 286.16 72.0266 284.862 68.7822L281.78 70.08C283.402 74.1356 287.782 77.0555 292.811 77.0555C299.3 77.0555 303.68 73.8111 303.68 68.2956C303.68 57.7511 286.322 60.5089 286.322 53.2089C286.322 50.6133 288.107 48.3422 292.973 48.3422C296.542 48.3422 299.462 49.9644 300.598 52.56L303.356 51.2622C301.571 47.3689 297.516 45.0977 292.487 45.0977M252.904 45.4222V76.5689H256.473V52.3977H256.636L273.182 76.5689H276.102V45.4222H272.533V69.2689L256.311 45.4222H252.904V45.4222ZM233.438 49.1533L239.764 65.5378H227.111L233.438 49.1533V49.1533ZM226.138 68.62H241.062L244.144 76.5689H248.362L235.709 45.4222H231.491L218.838 76.5689H223.056L226.138 68.62V68.62ZM212.349 57.2644V64.8889C212.349 70.4044 209.429 73.3244 203.913 73.3244H195.802V48.8289H203.913C209.591 48.8289 212.349 51.7489 212.349 57.2644M191.909 45.4222V76.5689H204.076C212.024 76.5689 216.404 72.0267 216.404 65.0511V57.1022C216.404 49.9644 211.862 45.4222 204.076 45.4222H191.909Z" fill="currentColor"/>
</svg>
